PathFileType	4	(X/Y/Z)	c:/Users/goper/Files/vsCode/490R/osim_files/C15/C15_SSWS_04.trc
DataRate	CameraRate	NumFrames	NumMarkers	Units                	OrigDataRate	OrigDataStartFrame	OrigNumFrames
250.00	250.00	4	36	mm	250.0	1228	2455
                Frame#	Time	LPSIS			LASIS			LTH1			LTH2			LTH3			LTH4			LLFE			LMFE			LSH1			LSH2			LSH3			LSH4			LLMAL			LMMAL			LCAL			LMTP5			LTOE			LMTP1			RPSIS			RASIS			RTH1			RTH2			RTH3			RTH4			RLFE			RMFE			RSH1			RSH2			RSH3			RSH4			RLMAL			RMMAL			RCAL			RMTP1			RTOE			RMTP5		
		X1	Y1	Z1	X2	Y2	Z2	X3	Y3	Z3	X4	Y4	Z4	X5	Y5	Z5	X6	Y6	Z6	X7	Y7	Z7	X8	Y8	Z8	X9	Y9	Z9	X10	Y10	Z10	X11	Y11	Z11	X12	Y12	Z12	X13	Y13	Z13	X14	Y14	Z14	X15	Y15	Z15	X16	Y16	Z16	X17	Y17	Z17	X18	Y18	Z18	X19	Y19	Z19	X20	Y20	Z20	X21	Y21	Z21	X22	Y22	Z22	X23	Y23	Z23	X24	Y24	Z24	X25	Y25	Z25	X26	Y26	Z26	X27	Y27	Z27	X28	Y28	Z28	X29	Y29	Z29	X30	Y30	Z30	X31	Y31	Z31	X32	Y32	Z32	X33	Y33	Z33	X34	Y34	Z34	X35	Y35	Z35	X36	Y36	Z36

1228	4.90800	291.97751	1017.00256	269.75327	125.35663	995.76343	332.58826	89.56607	618.43652	408.10648	71.86736	575.27301	393.10602	45.03186	643.93268	408.38312	28.29633	602.33356	399.88043	34.22731	514.58990	376.29254	11.20193	498.60489	258.06760	84.71877	401.76364	383.54010	79.82161	357.91367	391.63037	24.02874	405.02972	395.03217	27.05628	360.99799	400.94376	11.71157	94.44952	349.42569	-25.00768	126.37908	268.40225	56.26256	64.45008	291.47208	-108.22575	55.45408	394.54657	-171.83989	94.52794	350.51007	-149.36009	61.91632	286.28412	288.20770	1021.20618	148.48361	132.41083	993.39069	84.91897	219.80460	626.50586	44.90480	224.38225	581.43433	55.02769	161.52205	621.29858	62.69801	172.35521	575.17151	68.60004	230.69249	486.47897	85.05142	253.53119	476.45126	201.81186	330.51822	392.36160	69.34806	337.07083	349.10678	68.16086	268.77112	374.94656	71.95882	286.06473	335.59497	68.45941	360.47177	88.08474	144.67116	330.23401	110.55563	231.24997	425.21985	63.26826	191.55878	222.86511	38.43663	232.91933	188.27357	56.09285	179.22812	248.77002	32.03294	113.42488
1229	4.91200	287.97403	1016.42389	270.16409	121.15518	995.28333	332.63031	87.59402	617.61871	408.54083	69.35348	573.91785	392.91113	42.36862	642.47766	408.35019	25.69934	600.50159	400.15359	31.15603	513.41266	376.04706	8.45230	497.44003	257.57709	79.43362	399.53552	383.26929	73.61014	355.75882	391.40210	18.83809	404.13809	394.79398	20.94725	360.04724	400.74051	-0.40247	93.77251	349.39694	-36.20584	126.29432	268.19363	43.66661	63.00025	291.83292	-121.42837	57.71524	394.07047	-183.99130	98.08968	349.64215	-161.78108	65.36840	285.44086	284.49817	1020.70258	148.82077	128.83514	993.04028	84.94506	217.53960	626.27002	44.94508	222.13698	581.21350	55.07434	159.17412	620.91211	62.75417	170.15010	574.77924	68.70760	229.15353	486.41370	84.86932	251.69710	476.34113	201.84099	329.37531	392.72482	69.39089	336.00250	349.36279	68.22250	267.49939	374.90314	71.99060	284.98682	335.65204	68.41456	360.30585	88.37292	144.70554	330.03281	110.71796	231.25838	425.09720	63.55456	191.60280	222.87952	38.42805	232.91850	188.25272	56.03982	179.20113	248.81801	32.02417	113.36836
1230	4.91600	284.03598	1015.84210	270.54044	116.98522	994.79156	332.58524	84.99088	616.28796	408.46228	67.76511	572.98798	393.26880	39.56034	641.02246	408.38599	23.12711	598.99298	400.07043	27.90584	512.11371	375.76578	5.76406	496.17303	257.19635	74.48013	397.62131	383.09460	67.40184	353.70380	391.23697	13.46918	403.15302	394.57205	14.93210	359.11264	400.56012	-12.30774	93.35706	349.27563	-46.92449	126.66217	267.89059	31.49956	61.58773	292.13794	-134.34244	60.07871	393.43060	-195.73354	101.77362	348.59998	-174.17719	67.97939	284.61612	280.81583	1020.18427	149.20682	125.28677	992.72571	84.93606	215.17853	626.12146	44.96645	219.88022	580.99048	55.09769	156.70499	620.41858	62.85220	167.98433	574.45111	68.71156	227.80467	486.46457	84.46816	249.73997	476.26111	201.86240	328.09558	392.95703	69.47870	334.73654	349.58063	68.32339	266.24295	374.84634	71.95302	283.86111	335.70633	68.46305	360.13687	88.64536	144.75000	329.68900	110.89371	231.23387	424.94699	63.85755	191.60780	222.88426	38.45429	232.86223	188.23885	55.98074	179.16228	248.81389	31.98677	113.35867
1231	4.92000	280.04843	1015.27045	270.91592	112.75603	994.26929	332.56677	80.54742	614.00281	407.42529	65.27859	571.70154	393.30338	36.36507	638.92664	408.53387	20.48626	597.51935	400.16187	24.79003	510.83807	375.66614	3.04992	494.99380	256.81918	68.95844	395.24008	383.11325	61.21627	351.74310	391.19910	8.49524	402.32571	394.40515	8.76709	358.21173	400.33505	-23.07419	93.80135	350.15027	-57.40781	126.91706	267.39532	19.15350	59.97607	292.27472	-146.95212	62.53866	392.57645	-207.30090	105.46989	347.37622	-186.04338	71.16633	283.56827	277.06854	1019.63977	149.59230	121.67976	992.25739	85.01463	212.83249	625.89551	44.98548	217.43695	580.84570	55.40921	154.48059	620.15479	62.73830	165.77272	574.06757	68.74639	226.70976	486.71213	83.84846	247.67207	476.15820	201.89464	326.53464	393.14304	69.58832	333.39352	350.03299	68.95757	264.85321	374.80829	71.96136	282.69952	335.76590	68.43758	359.98782	88.96624	144.76587	329.35764	111.05328	231.24677	424.86096	64.23528	191.59500	223.09151	38.61030	232.90521	188.21185	55.91748	179.11957	248.83298	32.00559	113.31860
